<?xml version="1.0"?>
<svg xmlns="http://www.w3.org/2000/svg" height="512px" viewBox="0 0 496 496" width="512px"><path d="m306.289062 429.664062c4.367188 4.359376 10.351563 10.335938 21.671876 10.335938 11.320312 0 17.304687-5.976562 21.671874-10.335938 3.925782-3.929687 5.863282-5.664062 10.367188-5.664062h8v-16h-8c-11.320312 0-17.304688 5.976562-21.671875 10.335938-3.929687 3.929687-5.855469 5.664062-10.367187 5.664062-4.511719 0-6.441407-1.734375-10.367188-5.664062-4.371094-4.359376-10.355469-10.335938-21.671875-10.335938-11.3125 0-17.289063 5.984375-21.65625 10.34375-3.921875 3.921875-5.839844 5.65625-10.335937 5.65625-4.496094 0-6.417969-1.734375-10.335938-5.65625-4.355469-4.359375-10.328125-10.34375-21.632812-10.34375-11.304688 0-17.289063 5.984375-21.648438 10.34375-3.921875 3.921875-5.839844 5.65625-10.328125 5.65625-4.496094 0-6.417969-1.734375-10.335937-5.65625-3.191407-3.191406-7.273438-7.230469-13.65625-9.175781v-17.167969h317.480468l-148.359375-272h110.886719c22.054688 0 40-17.945312 40-40 0-19.335938-13.792969-35.496094-32.046875-39.199219 0-.265625.046875-.527343.046875-.800781 0-22.054688-17.945312-40-40-40-8.992188 0-17.207031 3.089844-23.886719 8.113281-6.898437-5.210937-15.34375-8.113281-24.113281-8.113281-22.054688 0-40 17.945312-40 40 0 .273438.0625.527344.070312.800781-10.535156 2.128907-19.574218 8.414063-25.34375 17.0625-13.878906-20.976562-37.285156-33.863281-62.726562-33.863281-25.480469 0-48.929688 12.9375-62.800781 33.976562-5.792969-8.703124-14.785157-15.015624-25.277344-17.136718.007813-.289063.078125-.558594.078125-.839844 0-22.054688-17.945312-40-40-40-8.769531 0-17.214844 2.902344-24.113281 8.113281-6.679688-5.023437-14.894531-8.113281-23.886719-8.113281-22.054688 0-40 17.945312-40 40 0 .273438.046875.535156.046875.800781-18.253906 3.703125-32.046875 19.863281-32.046875 39.199219 0 22.054688 17.945312 40 40 40h110.886719l-88.480469 162.214844c-4.550781-1.429688-9.390625-2.214844-14.40625-2.214844-26.472656 0-48 21.527344-48 48v48c0 23.734375 17.335938 43.449219 40 47.28125v72.71875h16v-72.71875c9.136719-1.546875 17.382812-5.664062 24-11.601562v4.320312c0 23.734375 17.335938 43.449219 40 47.28125v32.71875h16v-32.71875c19.230469-3.25 34.609375-17.9375 38.816406-36.824219 1.0625.847657 2.160156 1.855469 3.511719 3.207031 4.367187 4.351563 10.34375 10.335938 21.65625 10.335938s17.28125-5.984375 21.648437-10.34375c3.917969-3.921875 5.839844-5.65625 10.328126-5.65625 4.488281 0 6.40625 1.734375 10.328124 5.65625 4.359376 4.359375 10.335938 10.34375 21.648438 10.34375 11.308594 0 17.285156-5.984375 21.65625-10.34375 3.917969-3.921875 5.839844-5.65625 10.335938-5.65625 4.503906 0 6.429687 1.734375 10.359374 5.664062zm33.398438-373.230468c1.625 3.589844 3.65625 7.015625 6.3125 10.023437l11.992188-10.59375c-3.863282-4.375-5.992188-10.007812-5.992188-15.863281 0-13.230469 10.769531-24 24-24 4.847656 0 9.503906 1.542969 13.449219 4.214844-3.371094 5.863281-5.449219 12.554687-5.449219 19.785156h16c0-13.230469 10.769531-24 24-24s24 10.769531 24 24c0 .28125-.097656.550781-.105469.832031-18.183593 3.761719-31.894531 19.886719-31.894531 39.167969h16c0-13.230469 10.769531-24 24-24s24 10.769531 24 24-10.769531 24-24 24h-112c-13.230469 0-24-10.769531-24-24 0-11.761719 8.511719-21.519531 19.6875-23.566406zm-143.824219 14.519531c10.417969-19.097656 30.394531-30.953125 52.136719-30.953125s41.71875 11.855469 52.136719 30.945312l4.03125 7.398438c-.023438.558594-.167969 1.089844-.167969 1.65625 0 14.65625 8.007812 27.351562 19.792969 34.320312l67.078125 122.976563c-14.398438-4.527344-26.582032-14.625-33.597656-28.65625l-18.128907-36.257813c-3.824219-7.640624-11.503906-12.382812-20.730469-12.382812-12.359374 0-22.414062 10.054688-22.414062 22.414062 0 1.648438.175781 3.289063.535156 4.867188l15.226563 68.519531c.160156.710938.238281 1.457031.238281 2.191407v3.863281c0 5.59375-4.550781 10.144531-10.144531 10.144531-4.558594 0-8.582031-3.070312-9.785157-7.472656l-17.476562-64.078125c-2.640625-9.679688-11.488281-16.449219-21.523438-16.449219-11.613281 0-21.167968 8.71875-22.222656 20.296875l-5.085937 55.96875c-.609375 6.6875-6.136719 11.734375-12.859375 11.734375-7.109375 0-12.902344-5.792969-12.902344-12.902344v-1.496094c0-.664062.046875-1.328124.152344-1.96875l13.398437-87.074218c.953125-6.160156-.832031-12.390625-4.886719-17.117188-4.054687-4.730468-9.960937-7.441406-16.183593-7.441406-8.25 0-15.832031 4.832031-19.320313 12.304688l-42.542968 91.160156c-4.679688 10.039062-14.875 16.535156-25.960938 16.535156-4.3125 0-8.617188-1.03125-12.496094-2.910156zm-43.863281 33.046875h-112c-13.230469 0-24-10.769531-24-24s10.769531-24 24-24 24 10.769531 24 24h16c0-19.28125-13.710938-35.40625-31.894531-39.167969-.007813-.28125-.105469-.550781-.105469-.832031 0-13.230469 10.769531-24 24-24s24 10.769531 24 24h16c0-7.230469-2.078125-13.921875-5.449219-19.785156 3.945313-2.671875 8.601563-4.214844 13.449219-4.214844 13.230469 0 24 10.769531 24 24 0 5.855469-2.128906 11.488281-6 15.863281l11.992188 10.59375c2.664062-3.015625 4.703124-6.449219 6.328124-10.058593 9.488282 1.738281 17.054688 9.105468 19.0625 18.664062l-14.839843 27.203125c-2.71875 1.054687-5.558594 1.734375-8.542969 1.734375zm-96 302.863281v-78.863281h-16v20.6875l-10.34375-10.34375-11.3125 11.3125 21.65625 21.65625v35.550781c-13.761719-3.574219-24-16-24-30.863281v-48c0-17.648438 14.351562-32 32-32s32 14.351562 32 32v48c0 14.863281-10.238281 27.289062-24 30.863281zm104 9.136719c0 14.863281-10.238281 27.289062-24 30.863281v-27.550781l21.65625-21.65625-11.3125-11.3125-10.34375 10.34375v-20.6875h-16v70.863281c-13.761719-3.574219-24-16-24-30.863281v-32c0-17.648438 14.351562-32 32-32s32 14.351562 32 32zm-32-80c-12.304688 0-23.496094 4.6875-32 12.320312v-20.320312c0-15.734375-7.640625-29.679688-19.375-38.441406l7.847656-14.382813.207032.105469c6.167968 3.085938 13.074218 4.71875 19.96875 4.71875 17.28125 0 33.167968-10.121094 40.472656-25.777344l42.542968-91.160156c.863282-1.863281 2.761719-3.0625 4.816407-3.0625 2.128906 0 3.441406 1.167969 4.03125 1.855469.59375.6875 1.542969 2.167969 1.214843 4.273437l-13.398437 87.09375c-.214844 1.449219-.328125 2.914063-.328125 4.378906v1.496094c0 15.933594 12.96875 28.902344 28.902344 28.902344 15.050781 0 27.425781-11.304688 28.792968-26.296875l5.089844-55.96875c.292969-3.261719 3-5.734375 6.285156-5.734375 2.839844 0 5.335938 1.910156 6.089844 4.65625l17.480469 64.085938c3.085937 11.335937 13.464844 19.257812 25.214844 19.257812 14.417969 0 26.144531-11.726562 26.144531-26.144531v-3.863281c0-1.914063-.207031-3.824219-.625-5.671876l-15.222656-68.519531c-.105469-.449219-.152344-.914062-.152344-1.386719 0-3.535156 2.878906-6.414062 7.089844-6.414062 2.445312 0 4.644531 1.359375 5.734375 3.542969l18.128906 36.257812c11.3125 22.613281 33.070313 37.269531 57.839844 39.695313l65.726562 120.503906h-291.238281c-3.832031-22.664062-23.546875-40-47.28125-40zm0 0" fill="#2d2d2d"/><path d="m466.328125 474.335938c-3.929687 3.929687-5.855469 5.664062-10.367187 5.664062-4.511719 0-6.441407-1.734375-10.367188-5.664062-4.371094-4.359376-10.355469-10.335938-21.671875-10.335938-11.3125 0-17.289063 5.984375-21.65625 10.34375-3.921875 3.921875-5.839844 5.65625-10.335937 5.65625-4.496094 0-6.417969-1.734375-10.335938-5.65625-4.355469-4.359375-10.328125-10.34375-21.632812-10.34375-11.304688 0-17.289063 5.984375-21.648438 10.34375-3.921875 3.921875-5.839844 5.65625-10.328125 5.65625-4.496094 0-6.417969-1.734375-10.335937-5.65625-4.359376-4.359375-10.335938-10.34375-21.648438-10.34375h-8v16h8c4.496094 0 6.414062 1.734375 10.335938 5.65625 4.359374 4.359375 10.335937 10.34375 21.648437 10.34375s17.28125-5.984375 21.648437-10.34375c3.917969-3.921875 5.839844-5.65625 10.328126-5.65625 4.488281 0 6.40625 1.734375 10.328124 5.65625 4.359376 4.359375 10.335938 10.34375 21.648438 10.34375 11.308594 0 17.285156-5.984375 21.65625-10.34375 3.917969-3.921875 5.839844-5.65625 10.335938-5.65625 4.503906 0 6.4375 1.734375 10.367187 5.664062 4.359375 4.359376 10.34375 10.335938 21.664063 10.335938 11.320312 0 17.304687-5.976562 21.671874-10.335938 3.925782-3.929687 5.863282-5.664062 10.367188-5.664062h8v-16h-8c-11.320312 0-17.304688 5.976562-21.671875 10.335938zm0 0" fill="#2d2d2d"/></svg>
