<!DOCTYPE svg PUBLIC "-//W3C//DTD SVG 20010904//EN" "http://www.w3.org/TR/2001/REC-SVG-20010904/DTD/svg10.dtd">
<svg version="1.0" xmlns="http://www.w3.org/2000/svg" width="25px" height="36px" viewBox="0 0 250 360" preserveAspectRatio="xMidYMid meet">
<g id="layer101" fill="#3fc182" stroke="none">
 <path d="M71 290 c-59 -98 -73 -142 -62 -192 11 -49 33 -74 78 -89 74 -24 143 18 157 96 5 27 1 49 -17 89 -31 67 -94 166 -106 166 -5 0 -27 -31 -50 -70z"/>
 </g>
<g id="layer102" fill="#fcfefd" stroke="none">
 <path d="M87 162 c-33 -36 -8 -92 40 -92 25 0 53 30 53 57 0 46 -62 69 -93 35z"/>
 </g>

</svg>